<svg width="32" height="32" viewBox="0 0 32 32" fill="none" xmlns="http://www.w3.org/2000/svg">
<g clip-path="url(#clip0)">
<path d="M31.1136 10.84H0.886057C0.396073 10.84 -0.000183105 10.4425 -0.000183105 9.95378C-0.000183105 9.46379 0.396073 9.06754 0.886057 9.06754H31.1136C31.6036 9.06754 31.9998 9.46379 31.9998 9.95378C31.9998 10.4425 31.6036 10.84 31.1136 10.84Z" fill="black"/>
<path d="M31.1136 16.8864H0.886057C0.396073 16.8864 -0.000183105 16.4889 -0.000183105 16.0002C-0.000183105 15.5114 0.396073 15.1139 0.886057 15.1139H31.1136C31.6036 15.1139 31.9998 15.5114 31.9998 16.0002C31.9998 16.4889 31.6036 16.8864 31.1136 16.8864Z" fill="black"/>
<path d="M31.1136 22.9325H0.886057C0.396073 22.9325 -0.000183105 22.5362 -0.000183105 22.0462C-0.000183105 21.5575 0.396073 21.16 0.886057 21.16H31.1136C31.6036 21.16 31.9998 21.5575 31.9998 22.0462C31.9998 22.5362 31.6036 22.9325 31.1136 22.9325Z" fill="black"/>
</g>
<defs>
<clipPath id="clip0">
<rect width="32" height="32" fill="white"/>
</clipPath>
</defs>
</svg>